<svg xmlns="http://www.w3.org/2000/svg" width="1600" height="1100" viewBox="0 0 1600 1100" fill="none">
  <rect width="1600" height="1100" fill="#E8E8E3"/>
  <rect x="95" y="75" width="1410" height="950" rx="20" fill="#F8F8F6" stroke="#CFCFC8"/>
  <circle cx="148" cy="130" r="22" fill="#171717"/><text x="136" y="136" fill="#84F29D" font-family="Arial" font-size="14" font-weight="700">SP</text>
  <circle cx="1450" cy="130" r="24" fill="#F8F8F6" stroke="#171717"/><path d="M1440 123h20M1440 130h20M1440 137h20" stroke="#171717" stroke-width="2"/>
  <text x="170" y="250" fill="#72736F" font-family="Arial" font-size="17" letter-spacing="8">SANKHYA PATRA</text>
  <text x="170" y="355" fill="#171717" font-family="Arial" font-size="88" font-weight="700">Full-Stack</text>
  <text x="170" y="448" fill="#171717" font-family="Arial" font-size="88" font-weight="700">Developer</text>
  <text x="170" y="518" fill="#72736F" font-family="Arial" font-size="22">Practical web and mobile products, built with</text>
  <text x="170" y="552" fill="#72736F" font-family="Arial" font-size="22">reliable architecture and thoughtful interfaces.</text>
  <rect x="170" y="618" width="190" height="58" rx="29" fill="#171717"/><text x="210" y="654" fill="white" font-family="Arial" font-size="16" font-weight="700">View projects →</text>
  <rect x="378" y="618" width="170" height="58" rx="29" fill="none" stroke="#171717"/><text x="419" y="654" fill="#171717" font-family="Arial" font-size="16" font-weight="700">Contact me</text>
  <g>
    <rect x="1030" y="180" width="330" height="650" rx="155" fill="#BFC1BC"/>
    <ellipse cx="1195" cy="505" rx="110" ry="160" fill="#171717"/>
    <text x="1115" y="540" fill="#84F29D" font-family="Arial" font-size="98" font-weight="700">SP</text>
    <ellipse cx="1195" cy="505" rx="145" ry="84" stroke="#84F29D" stroke-opacity=".55" stroke-width="2" transform="rotate(22 1195 505)"/>
    <ellipse cx="1195" cy="505" rx="78" ry="195" stroke="#84F29D" stroke-opacity=".35" stroke-width="2" transform="rotate(-15 1195 505)"/>
  </g>
  <text x="1210" y="894" fill="#72736F" font-family="Arial" font-size="12" letter-spacing="5">REACT · TYPESCRIPT · VITE</text>
</svg>
